<svg xmlns="http://www.w3.org/2000/svg" viewBox="0 0 201.08 202.77"><defs><style>.cls-1,.cls-2,.cls-3{fill:#fff;stroke:#000;}.cls-1,.cls-2{stroke-miterlimit:10;}.cls-1{stroke-width:2.88px;}.cls-2{stroke-width:2.16px;}.cls-3{stroke-linecap:round;stroke-linejoin:round;stroke-width:3.6px;}</style></defs><g id="Layer_2" data-name="Layer 2"><path class="cls-1" d="M18,141.06H34.61a0,0,0,0,1,0,0v52.38a7.48,7.48,0,0,1-7.48,7.48H18A16.58,16.58,0,0,1,1.44,184.34v-26.7A16.58,16.58,0,0,1,18,141.06Z"/><line class="cls-1" x1="34.2" y1="157.24" x2="1.44" y2="157.24"/><path class="cls-1" d="M1090.07,513.93h9.1a7.48,7.48,0,0,1,7.48,7.48V573.8a0,0,0,0,1,0,0h-16.58a16.58,16.58,0,0,1-16.58-16.58v-26.7A16.58,16.58,0,0,1,1090.07,513.93Z" transform="translate(1273.13 714.45) rotate(-180)"/><line class="cls-1" x1="166.88" y1="156.83" x2="199.64" y2="156.83"/><path class="cls-1" d="M1091.52,439.51h0a7,7,0,0,1,7,7V488a0,0,0,0,1,0,0h-7a15.61,15.61,0,0,1-15.61-15.61V455.11a15.61,15.61,0,0,1,15.61-15.61Z" transform="translate(1267.46 554.27) rotate(180)"/><line class="cls-1" x1="169.18" y1="79.35" x2="191.55" y2="79.35"/><path class="cls-1" d="M24.33,67h7a0,0,0,0,1,0,0v41.5a7,7,0,0,1-7,7h0A15.61,15.61,0,0,1,8.72,100V82.64A15.61,15.61,0,0,1,24.33,67Z"/><line class="cls-1" x1="31.1" y1="80.16" x2="8.72" y2="80.16"/><path class="cls-2" d="M982.67,402.22l-6.06-2.28c5.93-15.78,17.48-25.34,30.87-25.58h.5c13.2,0,25.31,9.4,31.68,24.66l-6,2.5c-5.42-13-15-20.68-25.68-20.68h-.4C997,381,987.64,389,982.67,402.22Z" transform="translate(-907.01 -373.28)"/><rect class="cls-1" x="26.11" y="28.2" width="149.66" height="173.12" rx="18.4"/><path class="cls-1" d="M55.24,134.59h93a0,0,0,0,1,0,0v35.6A19.82,19.82,0,0,1,128.45,190H75.06a19.82,19.82,0,0,1-19.82-19.82v-35.6A0,0,0,0,1,55.24,134.59Z"/><path class="cls-1" d="M937,415.33l14.13,28.5a19.89,19.89,0,0,0,17.82,11.05h72.87a19.9,19.9,0,0,0,17.51-10.45l16.54-30.69a7.69,7.69,0,0,0-6.68-11.1L946,403A9.47,9.47,0,0,0,937,415.33Z" transform="translate(-907.01 -373.28)"/></g><g id="Layer_5" data-name="Layer 5"><rect class="cls-1" x="25.71" y="19.71" width="152.49" height="71.06" rx="14.37"/></g><g id="Layer_6" data-name="Layer 6"><polyline class="cls-3" points="127.1 55.98 121.71 55.98 152.05 55.84"/><polygon class="cls-1" points="127.1 55.98 127.1 102.01 137.28 113.42 146.79 102.01 146.79 55.98 127.1 55.98"/><polygon class="cls-1" points="57.13 55.98 57.13 102.01 67.31 113.42 76.81 102.01 76.81 55.98 57.13 55.98"/><polyline class="cls-3" points="57.13 55.98 51.73 55.98 82.07 55.84"/></g></svg>