<svg id="Layer_1" data-name="Layer 1" xmlns="http://www.w3.org/2000/svg" viewBox="0 0 827.24 827.24"><defs><style>.cls-1{fill:#fff;}</style></defs><g id="Layer_2" data-name="Layer 2"><polygon class="cls-1" points="503.9 108.86 325.77 108.86 355.46 0 466.79 0 503.9 108.86"/><polygon class="cls-1" points="323.34 718.38 501.48 718.38 471.79 827.24 360.45 827.24 323.34 718.38"/><polygon class="cls-1" points="108.86 323.34 108.86 501.48 0 471.79 0 360.45 108.86 323.34"/><polygon class="cls-1" points="718.38 503.9 718.38 325.77 827.24 355.46 827.24 466.79 718.38 503.9"/><g id="Layer_3" data-name="Layer 3"><polygon class="cls-1" points="261.59 137.98 135.63 263.94 79.65 165.97 158.37 87.24 261.59 137.98"/><polygon class="cls-1" points="564.91 696.65 690.87 570.69 746.86 668.66 668.13 747.39 564.91 696.65"/><polygon class="cls-1" points="133.91 568.97 259.88 694.93 161.91 750.92 83.18 672.19 133.91 568.97"/><polygon class="cls-1" points="692.59 265.65 566.63 139.69 664.6 83.71 743.32 162.44 692.59 265.65"/></g></g><path class="cls-1" d="M936,252c-178.94,0-324,145.06-324,324S757.06,900,936,900s324-145.06,324-324S1114.94,252,936,252Zm.8,534C820.93,786,727,692.07,727,576.2s93.93-209.81,209.8-209.81,209.81,93.94,209.81,209.81S1052.67,786,936.8,786Z" transform="translate(-523.1 -162.13)"/></svg>