<svg id="Layer_1" data-name="Layer 1" xmlns="http://www.w3.org/2000/svg" viewBox="0 0 542.95 2030.72"><defs><style>.cls-1,.cls-3{fill:#edbc7f;}.cls-1,.cls-3,.cls-5{stroke:#7b5b35;}.cls-1,.cls-3,.cls-5,.cls-6,.cls-8{stroke-miterlimit:10;}.cls-1,.cls-5,.cls-6,.cls-8{stroke-width:2.88px;}.cls-2{fill:#edd6b9;}.cls-4{fill:#7b5b35;}.cls-5,.cls-7,.cls-8{fill:none;}.cls-6{fill:#e54d25;}.cls-6,.cls-8{stroke:#532511;}.cls-7{stroke:#e8846a;stroke-linecap:round;stroke-linejoin:round;stroke-width:5.76px;}.cls-9{fill:#532511;}</style></defs><g id="Layer_2" data-name="Layer 2"><path class="cls-1" d="M478.53,6H283.13L261.71,31.18H163.6L142.18,6H5V2033.81H146.87a72.08,72.08,0,0,0,69.86-55.37l114-469.38a72.09,72.09,0,0,1,69.86-55.37h77.95c36.75,0,66.53-30.1,66.53-67.23V73.2C545.06,36.07,515.28,6,478.53,6Z" transform="translate(-3.55 -4.53)"/><path class="cls-2" d="M350.61,32.29c-2.21,2.93-9.29-4.5-9.84-8.31s-.32-9.12-.28-15.06H343l.37,13.74Z" transform="translate(-3.55 -4.53)"/><path class="cls-3" d="M343.37,7.27V20.92c0,6,4.23,10.8,9.46,10.8h2c5.23,0,9.46-4.85,9.46-10.8V7.27Z" transform="translate(-3.55 -4.53)"/><path class="cls-2" d="M386,32.29c-2.21,2.93-9.28-4.5-9.84-8.31s-.31-9.12-.28-15.06h2.53l.37,13.74Z" transform="translate(-3.55 -4.53)"/><path class="cls-3" d="M378.74,7.27V20.92c0,6,4.22,10.8,9.45,10.8h2c5.23,0,9.46-4.85,9.46-10.8V7.27Z" transform="translate(-3.55 -4.53)"/><path class="cls-2" d="M419.32,32.29c-2.21,2.93-9.28-4.5-9.84-8.31s-.31-9.12-.28-15.06h2.53l.37,13.74Z" transform="translate(-3.55 -4.53)"/><path class="cls-3" d="M412.1,7.27V20.92c0,6,4.23,10.8,9.46,10.8h2c5.23,0,9.46-4.85,9.46-10.8V7.27Z" transform="translate(-3.55 -4.53)"/><path class="cls-2" d="M263.08,34.52,261,37.59a6.57,6.57,0,0,1-5.41,3.08H157.75a6.47,6.47,0,0,1-5-2.56L129.57,9h11.76l21.09,24.84S264,33.44,263.08,34.52Z" transform="translate(-3.55 -4.53)"/><path class="cls-2" d="M545.8,122.23H528.89c-9.85,0-17.84,7.67-17.84,17.14v981c0,9.48,8,17.15,17.84,17.15H544Z" transform="translate(-3.55 -4.53)"/><path class="cls-3" d="M545.06,118.47H531.25c-8,0-14.57,7.67-14.57,17.14v981c0,9.48,6.52,17.15,14.57,17.15h12.32Z" transform="translate(-3.55 -4.53)"/><path class="cls-2" d="M477.27,5.53v13.7c0,7.41,4.49,13.82,10.69,15.1,15.63,3.21,25.54,15.6,30.95,35.27,1.74,6.34,6.78,10.62,12.45,10.62h13.7L540.67,56c-6.15-26.49-25-41.87-52.82-49.5Z" transform="translate(-3.55 -4.53)"/><path class="cls-4" d="M480.06,5.08V18.46c0,7.24,4.38,13.52,10.43,14.76,15.24,3.13,24.92,15.25,30.18,34.44,1.7,6.2,6.61,10.39,12.13,10.39h13.37l-4.28-23.71c-6-25.88-24.44-40.9-51.51-48.33Z" transform="translate(-3.55 -4.53)"/><path class="cls-2" d="M6.51,1998.65H138c32.46,5.09,52.11-19.88,62.75-65.93l127.36-476c11.08-18.44,25.74-24,39.59-28.57l113.17-3.52c22.69-3.89,39.14-16.89,42.69-48.72a23,23,0,0,1,15.81-8.11l5-.3v29l-9.71,26.36-12,15.82-22.4,11.43s-23.16,5.28-26.89,4.39-78.42,0-78.42,0L374,1458.93l-18.66,10.54-10.46,11.43L336,1495l-6,19.34-98.59,402.58-10.45,41.31-8.22,34.29L200,2010.93l-20.92,15-23.16,7.91H6.51Z" transform="translate(-3.55 -4.53)"/><path class="cls-5" d="M478.53,6H283.13L261.71,31.18H163.6L142.18,6H5V2033.81H146.87a72.08,72.08,0,0,0,69.86-55.37l114-469.38a72.09,72.09,0,0,1,69.86-55.37h77.95c36.75,0,66.53-30.1,66.53-67.23V73.2C545.06,36.07,515.28,6,478.53,6Z" transform="translate(-3.55 -4.53)"/><path class="cls-6" d="M7.62,1920.42H137.21a60.41,60.41,0,0,0,58.65-46.81L299.7,1433.13a60.41,60.41,0,0,1,58.65-46.8h63.5c37.79,0,68.42-31,68.42-69.15V122.58c0-38.21-30.63-69.15-68.42-69.15H7.62Z" transform="translate(-3.55 -4.53)"/><path class="cls-7" d="M410.61,61.62c38.35-2.48,65.87,13.43,70.48,68.11.17,1.93.23,3.86.23,5.8V1302.25c0,14,1.57,34.55-5,46.22-11.38,20.3-32.37,28.12-56,33.75-.39.09-.78.17-1.18.24a19.41,19.41,0,0,1-4,.24l-60.94-1.39a22.69,22.69,0,0,0-2.73.08c-11.63,1.28-33.11,9.43-41.46,17.45-14.44,13.87-20.33,31.34-23.5,51-.3,1.79-.63,3.57-1.06,5.33l-97.55,410.56c-7.08,31-26.06,44.09-52.25,46.35-1.27.11-2.54.15-3.82.15H11.24" transform="translate(-3.55 -4.53)"/><path class="cls-8" d="M7.62,1920.42H137.21a60.41,60.41,0,0,0,58.65-46.81L299.7,1433.13a60.41,60.41,0,0,1,58.65-46.8h63.5c37.79,0,68.42-31,68.42-69.15V122.58c0-38.21-30.63-69.15-68.42-69.15H7.62Z" transform="translate(-3.55 -4.53)"/><path class="cls-3" d="M760.92,300.42" transform="translate(-3.55 -4.53)"/></g><g id="Layer_3" data-name="Layer 3"><path class="cls-9" d="M375,1082.44H83.18c-14.72,0-26.65-14-26.65-31.35V974.31C56.53,957,68.46,943,83.18,943H375c14.71,0,26.64,14,26.64,31.36v76.78C401.63,1068.41,389.7,1082.44,375,1082.44Z" transform="translate(-3.55 -4.53)"/><path class="cls-8" d="M388,1100H66.75c-14.72,0-26.65-14-26.65-31.35V954.41c0-17.32,11.93-31.36,26.65-31.36H387.93c14.72,0,26.65,14,26.65,31.36v114.26C414.58,1086,402.65,1100,388,1100Z" transform="translate(-3.55 -4.53)"/><path class="cls-9" d="M375,839.84H83.18c-14.72,0-26.65-14-26.65-31.36V731.71c0-17.32,11.93-31.36,26.65-31.36H375c14.71,0,26.64,14,26.64,31.36v76.77C401.63,825.8,389.7,839.84,375,839.84Z" transform="translate(-3.55 -4.53)"/><path class="cls-8" d="M387,859.77H65.75c-14.72,0-26.65-14-26.65-31.36V714.15c0-17.32,11.93-31.36,26.65-31.36H386.93c14.72,0,26.65,14,26.65,31.36V828.41C413.58,845.73,401.67,859.77,387,859.77Z" transform="translate(-3.55 -4.53)"/><path class="cls-9" d="M375,621H83.18c-14.72,0-26.65-14-26.65-31.36V512.84c0-17.32,11.93-31.36,26.65-31.36H375c14.71,0,26.64,14,26.64,31.36v76.77C401.63,606.93,389.7,621,375,621Z" transform="translate(-3.55 -4.53)"/><path class="cls-8" d="M388,638.25H66.75c-14.72,0-26.65-14-26.65-31.36V492.63c0-17.32,11.93-31.36,26.65-31.36H387.93c14.72,0,26.65,14,26.65,31.36V606.89C414.58,624.21,402.65,638.25,388,638.25Z" transform="translate(-3.55 -4.53)"/><path class="cls-9" d="M375,402.1H83.18c-14.72,0-26.65-14-26.65-31.36V294c0-17.32,11.93-31.36,26.65-31.36H375c14.71,0,26.64,14,26.64,31.36v76.77C401.63,388.06,389.7,402.1,375,402.1Z" transform="translate(-3.55 -4.53)"/><path class="cls-8" d="M389,420.27H67.74c-14.71,0-26.64-14-26.64-31.36V274.65c0-17.32,11.93-31.36,26.64-31.36H388.93c14.72,0,26.65,14,26.65,31.36V388.91C415.58,406.23,403.65,420.27,389,420.27Z" transform="translate(-3.55 -4.53)"/></g></svg>