<?xml version="1.0" encoding="utf-8"?>
<!-- Generator: Adobe Illustrator 25.2.3, SVG Export Plug-In . SVG Version: 6.00 Build 0)  -->
<svg version="1.1" id="Layer_1" xmlns="http://www.w3.org/2000/svg" xmlns:xlink="http://www.w3.org/1999/xlink" x="0px" y="0px"
	 viewBox="0 0 543.1 2030.7" style="enable-background:new 0 0 543.1 2030.7;" xml:space="preserve">
<style type="text/css">
	.st0{fill:#EDBC7F;stroke:#7B5B35;stroke-width:2.88;stroke-miterlimit:10;}
	.st1{fill:#EDD6B9;}
	.st2{fill:#EDBC7F;stroke:#7B5B35;stroke-miterlimit:10;}
	.st3{fill:#7B5B35;}
	.st4{fill:none;stroke:#7B5B35;stroke-width:2.88;stroke-miterlimit:10;}
	.st5{fill:#E54D25;stroke:#532511;stroke-width:2.88;stroke-miterlimit:10;}
	.st6{fill:none;stroke:#E8846A;stroke-width:5.76;stroke-linecap:round;stroke-linejoin:round;}
	.st7{fill:none;stroke:#532511;stroke-width:2.88;stroke-miterlimit:10;}
	.st8{fill:#4D4D4D;stroke:#2E2E2E;stroke-width:2.16;stroke-miterlimit:10;}
	.st9{fill:#E54D25;stroke:#E8846A;stroke-width:64.8;stroke-miterlimit:10;}
	.st10{fill:#E54D25;}
</style>
<g id="Layer_2_1_">
	<path class="st0" d="M474.9,1.4H279.5l-21.4,25.2H160L138.5,1.4H1.4v2027.8h141.9c33.3-0.1,62.2-23,69.9-55.4l114-469.4
		c7.7-32.4,36.6-55.3,69.9-55.4h78c36.8,0,66.5-30.1,66.5-67.2V68.6C541.4,31.4,511.6,1.4,474.9,1.4z"/>
	<path class="st1" d="M347,27.7c-2.2,2.9-9.3-4.5-9.8-8.3s-0.3-9.1-0.3-15.1h2.5l0.4,13.7L347,27.7z"/>
	<path class="st2" d="M339.7,2.6v13.6c0,6,4.2,10.8,9.5,10.8h2c5.2,0,9.5-4.9,9.5-10.8V2.6H339.7z"/>
	<path class="st1" d="M382.4,27.7c-2.2,2.9-9.3-4.5-9.8-8.3s-0.3-9.1-0.3-15.1h2.5l0.4,13.7L382.4,27.7z"/>
	<path class="st2" d="M375.1,2.6v13.6c0,6,4.2,10.8,9.5,10.8h2c5.2,0,9.5-4.9,9.5-10.8V2.6H375.1z"/>
	<path class="st1" d="M415.7,27.7c-2.2,2.9-9.3-4.5-9.8-8.3s-0.3-9.1-0.3-15.1h2.5l0.4,13.7L415.7,27.7z"/>
	<path class="st2" d="M408.5,2.6v13.6c0,6,4.2,10.8,9.5,10.8h2c5.2,0,9.5-4.9,9.5-10.8V2.6H408.5z"/>
	<path class="st1" d="M259.4,29.9l-2.1,3.1c-1.2,1.9-3.2,3-5.4,3.1h-97.8c-2,0-3.8-1-5-2.6L125.9,4.4h11.8l21.1,24.8
		C158.8,29.2,260.4,28.8,259.4,29.9z"/>
	<path class="st1" d="M542.1,117.6h-16.9c-9.8,0-17.8,7.7-17.8,17.1v981c0,9.5,8,17.2,17.8,17.2h15.1L542.1,117.6z"/>
	<path class="st2" d="M541.4,113.8h-13.8c-8,0-14.6,7.7-14.6,17.1v981c0,9.5,6.5,17.2,14.6,17.2h12.3L541.4,113.8z"/>
	<path class="st1" d="M473.6,0.9v13.7c0,7.4,4.5,13.8,10.7,15.1c15.6,3.2,25.6,15.6,31,35.3c1.7,6.3,6.8,10.6,12.5,10.6h13.7
		l-4.4-24.2C530.9,24.9,512,9.5,484.2,1.9L473.6,0.9z"/>
	<path class="st3" d="M476.4,0.4v13.4c0,7.2,4.4,13.5,10.4,14.8C502,31.7,511.7,43.9,517,63c1.7,6.2,6.6,10.4,12.1,10.4h13.4
		l-4.3-23.7c-6-25.9-24.4-40.9-51.5-48.3L476.4,0.4z"/>
	<path class="st1" d="M2.9,1994h131.5c32.5,5.1,52.1-19.9,62.8-65.9l127.4-476c11.1-18.4,25.7-24,39.6-28.6l113.2-3.5
		c22.7-3.9,39.1-16.9,42.7-48.7c4-4.7,9.7-7.6,15.8-8.1l5-0.3v29l-9.7,26.4l-12,15.8l-22.4,11.4c0,0-23.2,5.3-26.9,4.4
		s-78.4,0-78.4,0l-21,4.4l-18.7,10.5l-10.5,11.4l-8.9,14.1l-6,19.3l-98.6,402.6l-10.4,41.3l-8.2,34.3l-12.7,18.4l-20.9,15l-23.2,7.9
		H2.9V1994z"/>
	<path class="st4" d="M474.9,1.4H279.5l-21.4,25.2H160L138.5,1.4H1.4v2027.8h141.9c33.3-0.1,62.2-23,69.9-55.4l114-469.4
		c7.7-32.4,36.6-55.3,69.9-55.4h78c36.8,0,66.5-30.1,66.5-67.2V68.6C541.4,31.4,511.6,1.4,474.9,1.4z"/>
	<path class="st5" d="M4,1915.8h129.6c28-0.1,52.3-19.5,58.7-46.8l103.8-440.5c6.3-27.3,30.6-46.7,58.6-46.8h63.5
		c37.8,0,68.4-31,68.4-69.2V118c0-38.2-30.6-69.2-68.4-69.2H4V1915.8z"/>
	<path class="st6" d="M407,57c38.4-2.5,65.9,13.4,70.5,68.1c0.2,1.9,0.2,3.9,0.2,5.8v1166.7c0,14,1.6,34.6-5,46.2
		c-11.4,20.3-32.4,28.1-56,33.8c-0.4,0.1-0.8,0.2-1.2,0.2c-1.3,0.2-2.7,0.3-4,0.2l-60.9-1.4c-0.9,0-1.8,0-2.7,0.1
		c-11.6,1.3-33.1,9.4-41.5,17.4c-14.4,13.9-20.3,31.3-23.5,51c-0.3,1.8-0.6,3.6-1.1,5.3L184.2,1861c-7.1,31-26.1,44.1-52.2,46.3
		c-1.3,0.1-2.5,0.2-3.8,0.2H7.6"/>
	<path class="st7" d="M4,1915.8h129.6c28-0.1,52.3-19.5,58.7-46.8l103.8-440.5c6.3-27.3,30.6-46.7,58.6-46.8h63.5
		c37.8,0,68.4-31,68.4-69.2V118c0-38.2-30.6-69.2-68.4-69.2H4V1915.8z"/>
	<path class="st2" d="M757.3,295.8"/>
</g>
<path class="st8" d="M457.7,1350.6H256.2c-4.2,0-7.7-3.4-7.7-7.7v-64.7c0-4.2,3.4-7.7,7.7-7.7h201.4c4.2,0,7.7,3.4,7.7,7.7v64.7
	C465.4,1347.1,461.9,1350.6,457.7,1350.6z"/>
<g>
	<path class="st9" d="M299.8,1207.6H133.3c-40,0-72.4-32.4-72.4-72.4V894.7c0-40,32.4-72.4,72.4-72.4h166.5
		c40,0,72.4,32.4,72.4,72.4v240.5C372.2,1175.2,339.8,1207.6,299.8,1207.6z"/>
	<path class="st10" d="M311.9,1217.1H146.4c-39.7,0-71.8-32.1-71.8-71.8V886.8c0-39.7,32.1-71.8,71.8-71.8h165.5
		c39.7,0,71.8,32.1,71.8,71.8v258.5C383.7,1184.9,351.5,1217.1,311.9,1217.1z"/>
</g>
</svg>
