<svg id="Layer_1" data-name="Layer 1" xmlns="http://www.w3.org/2000/svg" viewBox="0 0 543.08 2030.68"><defs><style>.cls-1,.cls-3{fill:#edbc7f;}.cls-1,.cls-3,.cls-5{stroke:#7b5b35;}.cls-1,.cls-3,.cls-5,.cls-6,.cls-8{stroke-miterlimit:10;}.cls-1,.cls-5,.cls-6,.cls-8{stroke-width:2.88px;}.cls-2{fill:#edd6b9;}.cls-4{fill:#7b5b35;}.cls-5,.cls-7,.cls-8{fill:none;}.cls-6{fill:#e54d25;}.cls-6,.cls-8{stroke:#532511;}.cls-7{stroke:#e8846a;stroke-linecap:round;stroke-linejoin:round;stroke-width:5.76px;}</style></defs><g id="Layer_2" data-name="Layer 2"><path class="cls-1" d="M475,1.5H279.6L258.2,26.7H160.1L138.6,1.5H1.5V2029.3H143.4a72.15,72.15,0,0,0,69.9-55.4l114-469.4a72.17,72.17,0,0,1,69.9-55.4h78c36.8,0,66.5-30.1,66.5-67.2V68.7C541.5,31.5,511.7,1.5,475,1.5Z" transform="translate(-0.06 -0.06)"/><path class="cls-2" d="M347.1,27.8c-2.2,2.9-9.3-4.5-9.8-8.3s-.3-9.1-.3-15.1h2.5l.4,13.7Z" transform="translate(-0.06 -0.06)"/><path class="cls-3" d="M339.8,2.7V16.3c0,6,4.2,10.8,9.5,10.8h2c5.2,0,9.5-4.9,9.5-10.8V2.7Z" transform="translate(-0.06 -0.06)"/><path class="cls-2" d="M382.5,27.8c-2.2,2.9-9.3-4.5-9.8-8.3s-.3-9.1-.3-15.1h2.5l.4,13.7Z" transform="translate(-0.06 -0.06)"/><path class="cls-3" d="M375.2,2.7V16.3c0,6,4.2,10.8,9.5,10.8h2c5.2,0,9.5-4.9,9.5-10.8V2.7Z" transform="translate(-0.06 -0.06)"/><path class="cls-2" d="M415.8,27.8c-2.2,2.9-9.3-4.5-9.8-8.3s-.3-9.1-.3-15.1h2.5l.4,13.7Z" transform="translate(-0.06 -0.06)"/><path class="cls-3" d="M408.6,2.7V16.3c0,6,4.2,10.8,9.5,10.8h2c5.2,0,9.5-4.9,9.5-10.8V2.7Z" transform="translate(-0.06 -0.06)"/><path class="cls-2" d="M259.5,30l-2.1,3.1a6.66,6.66,0,0,1-5.4,3.1H154.2a6.25,6.25,0,0,1-5-2.6L126,4.5h11.8l21.1,24.8S260.5,28.9,259.5,30Z" transform="translate(-0.06 -0.06)"/><path class="cls-2" d="M542.2,117.7H525.3c-9.8,0-17.8,7.7-17.8,17.1v981c0,9.5,8,17.2,17.8,17.2h15.1Z" transform="translate(-0.06 -0.06)"/><path class="cls-3" d="M541.5,113.9H527.7c-8,0-14.6,7.7-14.6,17.1v981c0,9.5,6.5,17.2,14.6,17.2H540Z" transform="translate(-0.06 -0.06)"/><path class="cls-2" d="M473.7,1V14.7c0,7.4,4.5,13.8,10.7,15.1C500,33,510,45.4,515.4,65.1c1.7,6.3,6.8,10.6,12.5,10.6h13.7l-4.4-24.2C531,25,512.1,9.6,484.3,2Z" transform="translate(-0.06 -0.06)"/><path class="cls-4" d="M476.5.5V13.9c0,7.2,4.4,13.5,10.4,14.8,15.2,3.1,24.9,15.3,30.2,34.4,1.7,6.2,6.6,10.4,12.1,10.4h13.4l-4.3-23.7c-6-25.9-24.4-40.9-51.5-48.3Z" transform="translate(-0.06 -0.06)"/><path class="cls-2" d="M3,1994.1H134.5c32.5,5.1,52.1-19.9,62.8-65.9l127.4-476c11.1-18.4,25.7-24,39.6-28.6l113.2-3.5c22.7-3.9,39.1-16.9,42.7-48.7a23.26,23.26,0,0,1,15.8-8.1l5-.3v29l-9.7,26.4-12,15.8-22.4,11.4s-23.2,5.3-26.9,4.4-78.4,0-78.4,0l-21,4.4-18.7,10.5-10.5,11.4-8.9,14.1-6,19.3-98.6,402.6-10.4,41.3-8.2,34.3-12.7,18.4-20.9,15-23.2,7.9H3Z" transform="translate(-0.06 -0.06)"/><path class="cls-5" d="M475,1.5H279.6L258.2,26.7H160.1L138.6,1.5H1.5V2029.3H143.4a72.15,72.15,0,0,0,69.9-55.4l114-469.4a72.17,72.17,0,0,1,69.9-55.4h78c36.8,0,66.5-30.1,66.5-67.2V68.7C541.5,31.5,511.7,1.5,475,1.5Z" transform="translate(-0.06 -0.06)"/><path class="cls-6" d="M4.1,1915.9H133.7a60.6,60.6,0,0,0,58.7-46.8l103.8-440.5a60.4,60.4,0,0,1,58.6-46.8h63.5c37.8,0,68.4-31,68.4-69.2V118.1c0-38.2-30.6-69.2-68.4-69.2H4.1Z" transform="translate(-0.06 -0.06)"/><path class="cls-7" d="M407.1,57.1c38.4-2.5,65.9,13.4,70.5,68.1a56.2,56.2,0,0,1,.2,5.8V1297.7c0,14,1.6,34.6-5,46.2-11.4,20.3-32.4,28.1-56,33.8a5,5,0,0,1-1.2.2,17.9,17.9,0,0,1-4,.2l-60.9-1.4a24.37,24.37,0,0,0-2.7.1c-11.6,1.3-33.1,9.4-41.5,17.4-14.4,13.9-20.3,31.3-23.5,51a45.22,45.22,0,0,1-1.1,5.3l-97.6,410.6c-7.1,31-26.1,44.1-52.2,46.3-1.3.1-2.5.2-3.8.2H7.7" transform="translate(-0.06 -0.06)"/><path class="cls-8" d="M4.1,1915.9H133.7a60.6,60.6,0,0,0,58.7-46.8l103.8-440.5a60.4,60.4,0,0,1,58.6-46.8h63.5c37.8,0,68.4-31,68.4-69.2V118.1c0-38.2-30.6-69.2-68.4-69.2H4.1Z" transform="translate(-0.06 -0.06)"/><path class="cls-3" d="M757.4,295.9" transform="translate(-0.06 -0.06)"/></g></svg>