<?xml version="1.0" encoding="utf-8"?>
<!-- Generator: Adobe Illustrator 25.2.3, SVG Export Plug-In . SVG Version: 6.00 Build 0)  -->
<svg version="1.1" id="Layer_1" xmlns="http://www.w3.org/2000/svg" xmlns:xlink="http://www.w3.org/1999/xlink" x="0px" y="0px"
	 viewBox="0 0 543.1 2030.7" style="enable-background:new 0 0 543.1 2030.7;" xml:space="preserve">
<style type="text/css">
	.st0{fill:#EDBC7F;stroke:#7B5B35;stroke-width:2.88;stroke-miterlimit:10;}
	.st1{fill:#EDD6B9;}
	.st2{fill:#EDBC7F;stroke:#7B5B35;stroke-miterlimit:10;}
	.st3{fill:#7B5B35;}
	.st4{fill:none;stroke:#7B5B35;stroke-width:2.88;stroke-miterlimit:10;}
	.st5{fill:#E54D25;stroke:#532511;stroke-width:2.88;stroke-miterlimit:10;}
	.st6{fill:none;stroke:#E8846A;stroke-width:5.76;stroke-linecap:round;stroke-linejoin:round;}
	.st7{fill:none;stroke:#532511;stroke-width:2.88;stroke-miterlimit:10;}
	.st8{fill:#532511;}
	.st9{fill:#4D4D4D;stroke:#242424;stroke-width:5.04;stroke-miterlimit:10;}
	.st10{fill:#E54D25;stroke:#E8846A;stroke-width:64.8;stroke-miterlimit:10;}
	.st11{fill:none;stroke:#532511;stroke-width:64.8;stroke-miterlimit:10;}
	.st12{fill:#E54D25;}
	.st13{fill:none;stroke:#532511;stroke-width:7.2;stroke-miterlimit:10;}
	.st14{fill:#242424;}
	.st15{fill:#4D4D4D;}
	.st16{fill:#4A7337;stroke:#242424;stroke-width:7.2;stroke-miterlimit:10;}
	.st17{fill:none;stroke:#242424;stroke-width:3.6;stroke-miterlimit:10;}
	.st18{fill:#4D4D4D;stroke:#242424;stroke-width:3.6;stroke-miterlimit:10;}
	.st19{fill:#C3E0B5;}
	.st20{fill:none;stroke:#242424;stroke-miterlimit:10;}
	.st21{fill:#377FDF;}
	.st22{fill:#C4F2FF;}
</style>
<g id="Layer_2_1_">
	<path class="st0" d="M474.9,3.5H279.5l-21.4,25.2H160L138.5,3.5H1.4v2027.8h141.9c33.3-0.1,62.2-23,69.9-55.4l114-469.4
		c7.7-32.4,36.6-55.3,69.9-55.4h78c36.8,0,66.5-30.1,66.5-67.2V70.7C541.4,33.5,511.6,3.5,474.9,3.5z"/>
	<path class="st1" d="M347,29.8c-2.2,2.9-9.3-4.5-9.8-8.3s-0.3-9.1-0.3-15.1h2.5l0.4,13.7L347,29.8z"/>
	<path class="st2" d="M339.7,4.7v13.6c0,6,4.2,10.8,9.5,10.8h2c5.2,0,9.5-4.9,9.5-10.8V4.7H339.7z"/>
	<path class="st1" d="M382.4,29.8c-2.2,2.9-9.3-4.5-9.8-8.3s-0.3-9.1-0.3-15.1h2.5l0.4,13.7L382.4,29.8z"/>
	<path class="st2" d="M375.1,4.7v13.6c0,6,4.2,10.8,9.5,10.8h2c5.2,0,9.5-4.9,9.5-10.8V4.7H375.1z"/>
	<path class="st1" d="M415.7,29.8c-2.2,2.9-9.3-4.5-9.8-8.3s-0.3-9.1-0.3-15.1h2.5l0.4,13.7L415.7,29.8z"/>
	<path class="st2" d="M408.5,4.7v13.6c0,6,4.2,10.8,9.5,10.8h2c5.2,0,9.5-4.9,9.5-10.8V4.7H408.5z"/>
	<path class="st1" d="M259.4,32l-2.1,3.1c-1.2,1.9-3.2,3-5.4,3.1h-97.8c-2,0-3.8-1-5-2.6L125.9,6.5h11.8l21.1,24.8
		C158.8,31.3,260.4,30.9,259.4,32z"/>
	<path class="st1" d="M542.1,119.7h-16.9c-9.8,0-17.8,7.7-17.8,17.1v981c0,9.5,8,17.2,17.8,17.2h15.1L542.1,119.7z"/>
	<path class="st2" d="M541.4,115.9h-13.8c-8,0-14.6,7.7-14.6,17.1v981c0,9.5,6.5,17.2,14.6,17.2h12.3L541.4,115.9z"/>
	<path class="st1" d="M473.6,3v13.7c0,7.4,4.5,13.8,10.7,15.1c15.6,3.2,25.6,15.6,31,35.3c1.7,6.3,6.8,10.6,12.5,10.6h13.7
		l-4.4-24.2C530.9,27,512,11.6,484.2,4L473.6,3z"/>
	<path class="st3" d="M476.4,2.5v13.4c0,7.2,4.4,13.5,10.4,14.8C502,33.8,511.7,46,517,65.1c1.7,6.2,6.6,10.4,12.1,10.4h13.4
		l-4.3-23.7c-6-25.9-24.4-40.9-51.5-48.3L476.4,2.5z"/>
	<path class="st1" d="M2.9,1996.1h131.5c32.5,5.1,52.1-19.9,62.8-65.9l127.4-476c11.1-18.4,25.7-24,39.6-28.6l113.2-3.5
		c22.7-3.9,39.1-16.9,42.7-48.7c4-4.7,9.7-7.6,15.8-8.1l5-0.3v29l-9.7,26.4l-12,15.8l-22.4,11.4c0,0-23.2,5.3-26.9,4.4
		s-78.4,0-78.4,0l-21,4.4l-18.7,10.5l-10.5,11.4l-8.9,14.1l-6,19.3l-98.6,402.6l-10.4,41.3l-8.2,34.3l-12.7,18.4l-20.9,15l-23.2,7.9
		H2.9V1996.1z"/>
	<path class="st4" d="M474.9,3.5H279.5l-21.4,25.2H160L138.5,3.5H1.4v2027.8h141.9c33.3-0.1,62.2-23,69.9-55.4l114-469.4
		c7.7-32.4,36.6-55.3,69.9-55.4h78c36.8,0,66.5-30.1,66.5-67.2V70.7C541.4,33.5,511.6,3.5,474.9,3.5z"/>
	<path class="st5" d="M4,1917.9h129.6c28-0.1,52.3-19.5,58.7-46.8l103.8-440.5c6.3-27.3,30.6-46.7,58.6-46.8h63.5
		c37.8,0,68.4-31,68.4-69.2V120.1c0-38.2-30.6-69.2-68.4-69.2H4V1917.9z"/>
	<path class="st6" d="M407,59.1c38.4-2.5,65.9,13.4,70.5,68.1c0.2,1.9,0.2,3.9,0.2,5.8v1166.7c0,14,1.6,34.6-5,46.2
		c-11.4,20.3-32.4,28.1-56,33.8c-0.4,0.1-0.8,0.2-1.2,0.2c-1.3,0.2-2.7,0.3-4,0.2l-60.9-1.4c-0.9,0-1.8,0-2.7,0.1
		c-11.6,1.3-33.1,9.4-41.5,17.4c-14.4,13.9-20.3,31.3-23.5,51c-0.3,1.8-0.6,3.6-1.1,5.3l-97.6,410.6c-7.1,31-26.1,44.1-52.2,46.3
		c-1.3,0.1-2.5,0.2-3.8,0.2H7.6"/>
	<path class="st7" d="M4,1917.9h129.6c28-0.1,52.3-19.5,58.7-46.8l103.8-440.5c6.3-27.3,30.6-46.7,58.6-46.8h63.5
		c37.8,0,68.4-31,68.4-69.2V120.1c0-38.2-30.6-69.2-68.4-69.2H4V1917.9z"/>
	<path class="st2" d="M757.3,297.9"/>
</g>
<path class="st8" d="M412.4,1361.1H54c-16.8,0-30.3-13.6-30.3-30.3v-80.9c0-16.8,13.6-30.3,30.3-30.3h358.4
	c16.8,0,30.3,13.6,30.3,30.3v80.9C442.7,1347.5,429.1,1361.1,412.4,1361.1z"/>
<path class="st9" d="M418,1346.1H48.3c-4.2,0-7.7-3.4-7.7-7.7v-95.9c0-4.2,3.4-7.7,7.7-7.7H418c4.2,0,7.7,3.4,7.7,7.7v95.9
	C425.7,1342.7,422.3,1346.1,418,1346.1z"/>
<g>
	<path class="st10" d="M291.2,1177.4H130.7c-38.6,0-69.8-32.4-69.8-72.4V835.8c0-40,31.2-72.4,69.8-72.4h160.5
		c38.6,0,69.8,32.4,69.8,72.4V1105C361,1145,329.8,1177.4,291.2,1177.4z"/>
	<path class="st11" d="M295.1,1171.8H158.9c-37.5,0-67.9-32.4-67.9-72.4V840.1c0-40,30.4-72.4,67.9-72.4h136.2
		c37.5,0,67.9,32.4,67.9,72.4v259.3C363,1139.3,332.6,1171.8,295.1,1171.8z"/>
	<path class="st12" d="M290.9,1187.5H125.4c-39.7,0-71.8-32.1-71.8-71.8V827.3c0-39.7,32.1-71.8,71.8-71.8h165.5
		c39.7,0,71.8,32.1,71.8,71.8v288.4C362.7,1155.4,330.5,1187.5,290.9,1187.5z"/>
	<path class="st13" d="M281.8,1168.5H147.3c-37,0-67.1-31.3-67.1-69.9V848.5c0-38.6,30-69.9,67.1-69.9h134.5
		c37,0,67.1,31.3,67.1,69.9v250.2C348.9,1137.2,318.9,1168.5,281.8,1168.5z"/>
</g>
<g>
	<circle class="st14" cx="406.2" cy="1251.9" r="9.6"/>
	<path class="st15" d="M401.3,1252.9c0,3.4,2.7,6.1,6.1,6.1c1,0,2-0.2,2.8-0.7c2-1,3.3-3.1,3.3-5.4c0-3.4-2.7-6.1-6.1-6.1
		S401.3,1249.5,401.3,1252.9z"/>
	<path class="st14" d="M405.7,1258c0.6-4.2,2.1-7.8,5.3-9.2l-2.1-1.2c-3.3,1.2-4.7,5-5.3,9.2L405.7,1258z"/>
</g>
<g>
	<circle class="st14" cx="57.3" cy="1251.9" r="9.6"/>
	<circle class="st15" cx="56.1" cy="1252.9" r="6.1"/>
	<path class="st14" d="M57.8,1258c-0.6-4.2-2.1-7.8-5.3-9.2l2.1-1.2c3.3,1.2,4.7,5,5.3,9.2L57.8,1258z"/>
</g>
<path class="st16" d="M232.4,1325.1H94.8c-4.9,0-8.9-4-8.9-8.9V1258c0-4.9,4-8.9,8.9-8.9h137.5c4.9,0,8.9,4,8.9,8.9v58.2
	C241.3,1321.1,237.3,1325.1,232.4,1325.1z"/>
<rect x="41.7" y="1336.3" class="st14" width="383.2" height="9.4"/>
<g>
	<path class="st14" d="M260.1,1319L260.1,1319c-3.4,0-6.2-2.8-6.2-6.2v-49.1c0-3.4,2.8-6.2,6.2-6.2l0,0c3.4,0,6.2,2.8,6.2,6.2v49.1
		C266.3,1316.2,263.6,1319,260.1,1319z"/>
	<path class="st15" d="M258.8,1315.4L258.8,1315.4c-1.7,0-3.1-1.4-3.1-3.1v-48.4c0-1.7,1.4-3.1,3.1-3.1l0,0c1.7,0,3.1,1.4,3.1,3.1
		v48.4C261.9,1314,260.5,1315.4,258.8,1315.4z"/>
</g>
<g>
	<path class="st14" d="M275.5,1319L275.5,1319c-3.4,0-6.2-2.8-6.2-6.2v-49.1c0-3.4,2.8-6.2,6.2-6.2l0,0c3.4,0,6.2,2.8,6.2,6.2v49.1
		C281.7,1316.2,278.9,1319,275.5,1319z"/>
	<path class="st15" d="M274.2,1315.4L274.2,1315.4c-1.7,0-3.1-1.4-3.1-3.1v-48.4c0-1.7,1.4-3.1,3.1-3.1l0,0c1.7,0,3.1,1.4,3.1,3.1
		v48.4C277.3,1314,275.9,1315.4,274.2,1315.4z"/>
</g>
<g>
	<path class="st14" d="M292.6,1319L292.6,1319c-3.4,0-6.2-2.8-6.2-6.2v-49.1c0-3.4,2.8-6.2,6.2-6.2l0,0c3.4,0,6.2,2.8,6.2,6.2v49.1
		C298.8,1316.2,296.1,1319,292.6,1319z"/>
	<path class="st15" d="M291.3,1315.4L291.3,1315.4c-1.7,0-3.1-1.4-3.1-3.1v-48.4c0-1.7,1.4-3.1,3.1-3.1l0,0c1.7,0,3.1,1.4,3.1,3.1
		v48.4C294.4,1314,293,1315.4,291.3,1315.4z"/>
</g>
<circle class="st17" cx="353.5" cy="1289.7" r="30.9"/>
<line class="st17" x1="322.6" y1="1289.7" x2="384.5" y2="1289.7"/>
<circle class="st18" cx="353.3" cy="1289.9" r="9.3"/>
<path class="st19" d="M90.6,1287.7v-11.4l24.1-22.6h12.5C127.2,1253.7,89.2,1289.2,90.6,1287.7z"/>
<g>
	<ellipse class="st14" cx="439.5" cy="1036.5" rx="22.7" ry="11.5"/>
	<polygon class="st14" points="462.1,1037.4 462.1,1032.1 460.1,1037.7 	"/>
	<polygon class="st14" points="416.8,1037.3 416.8,1032 418.8,1037.5 	"/>
	<ellipse class="st15" cx="439.5" cy="1031.8" rx="22.7" ry="11.5"/>
	<ellipse class="st20" cx="439.6" cy="1031.1" rx="19.9" ry="10.2"/>
	<g>
		<path class="st21" d="M456.4,1030.4c0,11.3-34.1,11.3-34.1,0v-13.8h34.1V1030.4z"/>
		<ellipse class="st21" cx="439.3" cy="1015.7" rx="17.1" ry="17.1"/>
		<path class="st22" d="M452,1032.5L452,1032.5c-1.1,0-2-0.9-2-2v-17.4c0-1.1,0.9-2,2-2l0,0c1.1,0,2,0.9,2,2v17.4
			C454,1031.6,453.1,1032.5,452,1032.5z"/>
	</g>
</g>
<g>
	<ellipse class="st14" cx="439.5" cy="976.3" rx="22.7" ry="11.5"/>
	<polygon class="st14" points="462.1,977.3 462.1,972 460.1,977.5 	"/>
	<polygon class="st14" points="416.8,977.1 416.8,971.9 418.8,977.4 	"/>
	<ellipse class="st15" cx="439.5" cy="971.7" rx="22.7" ry="11.5"/>
	<ellipse class="st20" cx="439.6" cy="970.9" rx="19.9" ry="10.2"/>
	<g>
		<path class="st21" d="M456.4,970.2c0,11.3-34.1,11.3-34.1,0v-13.8h34.1V970.2z"/>
		<ellipse class="st21" cx="439.3" cy="955.6" rx="17.1" ry="17.1"/>
		<path class="st22" d="M452,972.3L452,972.3c-1.1,0-2-0.9-2-2v-17.4c0-1.1,0.9-2,2-2l0,0c1.1,0,2,0.9,2,2v17.4
			C454,971.4,453.1,972.3,452,972.3z"/>
	</g>
</g>
<g>
	<ellipse class="st14" cx="439.5" cy="911.9" rx="22.7" ry="11.5"/>
	<polygon class="st14" points="462.1,912.8 462.1,907.6 460.1,913.1 	"/>
	<polygon class="st14" points="416.8,912.7 416.8,907.4 418.8,913 	"/>
	<ellipse class="st15" cx="439.5" cy="907.2" rx="22.7" ry="11.5"/>
	<ellipse class="st20" cx="439.6" cy="906.5" rx="19.9" ry="10.2"/>
	<g>
		<path class="st21" d="M456.4,905.8c0,11.3-34.1,11.3-34.1,0V892h34.1V905.8z"/>
		<ellipse class="st21" cx="439.3" cy="891.1" rx="17.1" ry="17.1"/>
		<path class="st22" d="M452,907.9L452,907.9c-1.1,0-2-0.9-2-2v-17.4c0-1.1,0.9-2,2-2l0,0c1.1,0,2,0.9,2,2v17.4
			C454,907,453.1,907.9,452,907.9z"/>
	</g>
</g>
</svg>
