<?xml version="1.0" encoding="utf-8"?>
<!-- Generator: Adobe Illustrator 25.2.3, SVG Export Plug-In . SVG Version: 6.00 Build 0)  -->
<svg version="1.1" id="Layer_1" xmlns="http://www.w3.org/2000/svg" xmlns:xlink="http://www.w3.org/1999/xlink" x="0px" y="0px"
	 viewBox="0 0 543 2030.7" style="enable-background:new 0 0 543 2030.7;" xml:space="preserve">
<style type="text/css">
	.st0{fill:#EDBC7F;stroke:#7B5B35;stroke-width:2.88;stroke-miterlimit:10;}
	.st1{fill:#EDD6B9;}
	.st2{fill:#EDBC7F;stroke:#7B5B35;stroke-miterlimit:10;}
	.st3{fill:#7B5B35;}
	.st4{fill:none;stroke:#7B5B35;stroke-width:2.88;stroke-miterlimit:10;}
	.st5{fill:#E54D25;stroke:#532511;stroke-width:2.88;stroke-miterlimit:10;}
	.st6{fill:none;stroke:#E8846A;stroke-width:5.76;stroke-linecap:round;stroke-linejoin:round;}
	.st7{fill:none;stroke:#532511;stroke-width:2.88;stroke-miterlimit:10;}
	.st8{fill:#532511;}
	.st9{fill:#545454;}
	.st10{fill:#0090D0;}
</style>
<g id="Layer_2_1_">
	<path class="st0" d="M475,1.5H279.6l-21.4,25.2h-98.1L138.6,1.5H1.5v2027.8h141.9c33.3-0.1,62.1-23,69.9-55.4l114-469.4
		c7.7-32.4,36.6-55.2,69.9-55.4h78c36.8,0,66.5-30.1,66.5-67.2V68.7C541.5,31.5,511.7,1.5,475,1.5z"/>
	<path class="st1" d="M347.1,27.8c-2.2,2.9-9.3-4.5-9.8-8.3s-0.3-9.1-0.3-15.1h2.5l0.4,13.7L347.1,27.8z"/>
	<path class="st2" d="M339.8,2.7v13.6c0,6,4.2,10.8,9.5,10.8h2c5.2,0,9.5-4.9,9.5-10.8V2.7H339.8z"/>
	<path class="st1" d="M382.5,27.8c-2.2,2.9-9.3-4.5-9.8-8.3s-0.3-9.1-0.3-15.1h2.5l0.4,13.7L382.5,27.8z"/>
	<path class="st2" d="M375.2,2.7v13.6c0,6,4.2,10.8,9.5,10.8h2c5.2,0,9.5-4.9,9.5-10.8V2.7H375.2z"/>
	<path class="st1" d="M415.8,27.8c-2.2,2.9-9.3-4.5-9.8-8.3s-0.3-9.1-0.3-15.1h2.5l0.4,13.7L415.8,27.8z"/>
	<path class="st2" d="M408.6,2.7v13.6c0,6,4.2,10.8,9.5,10.8h2c5.2,0,9.5-4.9,9.5-10.8V2.7H408.6z"/>
	<path class="st1" d="M259.5,30l-2.1,3.1c-1.2,1.9-3.2,3-5.4,3.1h-97.8c-2,0-3.8-1-5-2.6L126,4.5h11.8l21.1,24.8
		C158.9,29.3,260.5,28.9,259.5,30z"/>
	<path class="st1" d="M542.2,117.7h-16.9c-9.8,0-17.8,7.7-17.8,17.1v981c0,9.5,8,17.2,17.8,17.2h15.1L542.2,117.7z"/>
	<path class="st2" d="M541.5,113.9h-13.8c-8,0-14.6,7.7-14.6,17.1v981c0,9.5,6.5,17.2,14.6,17.2H540L541.5,113.9z"/>
	<path class="st1" d="M473.7,1v13.7c0,7.4,4.5,13.8,10.7,15.1C500,33,510,45.4,515.4,65.1c1.7,6.3,6.8,10.6,12.5,10.6h13.7
		l-4.4-24.2C531,25,512.1,9.6,484.3,2L473.7,1z"/>
	<path class="st3" d="M476.5,0.5v13.4c0,7.2,4.4,13.5,10.4,14.8c15.2,3.1,24.9,15.3,30.2,34.4c1.7,6.2,6.6,10.4,12.1,10.4h13.4
		l-4.3-23.7c-6-25.9-24.4-40.9-51.5-48.3L476.5,0.5z"/>
	<path class="st1" d="M3,1994.1h131.5c32.5,5.1,52.1-19.9,62.8-65.9l127.4-476c11.1-18.4,25.7-24,39.6-28.6l113.2-3.5
		c22.7-3.9,39.1-16.9,42.7-48.7c4-4.7,9.7-7.6,15.8-8.1l5-0.3v29l-9.7,26.4l-12,15.8l-22.4,11.4c0,0-23.2,5.3-26.9,4.4
		s-78.4,0-78.4,0l-21,4.4l-18.7,10.5l-10.5,11.4l-8.9,14.1l-6,19.3l-98.6,402.6l-10.4,41.3l-8.2,34.3l-12.7,18.4l-20.9,15l-23.2,7.9
		H3V1994.1z"/>
	<path class="st4" d="M475,1.5H279.6l-21.4,25.2h-98.1L138.6,1.5H1.5v2027.8h141.9c33.3-0.1,62.1-23,69.9-55.4l114-469.4
		c7.7-32.4,36.6-55.2,69.9-55.4h78c36.8,0,66.5-30.1,66.5-67.2V68.7C541.5,31.5,511.7,1.5,475,1.5z"/>
	<path class="st5" d="M4.1,1915.9h129.6c28-0.1,52.3-19.5,58.7-46.8l103.8-440.5c6.3-27.3,30.6-46.7,58.6-46.8h63.5
		c37.8,0,68.4-31,68.4-69.2V118.1c0-38.2-30.6-69.2-68.4-69.2H4.1V1915.9z"/>
	<path class="st6" d="M407.1,57.1c38.4-2.5,65.9,13.4,70.5,68.1c0.2,1.9,0.2,3.9,0.2,5.8v1166.7c0,14,1.6,34.6-5,46.2
		c-11.4,20.3-32.4,28.1-56,33.8c-0.4,0.1-0.8,0.2-1.2,0.2c-1.3,0.2-2.7,0.3-4,0.2l-60.9-1.4c-0.9,0-1.8,0-2.7,0.1
		c-11.6,1.3-33.1,9.4-41.5,17.4c-14.4,13.9-20.3,31.3-23.5,51c-0.3,1.8-0.6,3.6-1.1,5.3l-97.6,410.6c-7.1,31-26.1,44.1-52.2,46.3
		c-1.3,0.1-2.5,0.2-3.8,0.2H7.7"/>
	<path class="st7" d="M4.1,1915.9h129.6c28-0.1,52.3-19.5,58.7-46.8l103.8-440.5c6.3-27.3,30.6-46.7,58.6-46.8h63.5
		c37.8,0,68.4-31,68.4-69.2V118.1c0-38.2-30.6-69.2-68.4-69.2H4.1V1915.9z"/>
	<path class="st2" d="M757.4,295.9"/>
</g>
<g id="Layer_3">
	<path class="st8" d="M371.5,1058.3H79.6c-14.7,0-26.6-14-26.6-31.3v-76.8c0-17.3,11.9-31.3,26.6-31.3h291.8
		c14.7,0,26.6,14,26.6,31.4v76.8C398.1,1044.3,386.2,1058.3,371.5,1058.3z"/>
	<path class="st7" d="M384.5,1075.9H63.2c-14.7,0-26.7-14-26.7-31.3V930.3c0-17.3,11.9-31.4,26.7-31.4h321.2
		c14.7,0,26.6,14,26.6,31.4v114.3C411,1061.9,399.1,1075.9,384.5,1075.9z"/>
	<path class="st8" d="M371.5,835.3H79.6c-14.7,0-26.6-14-26.6-31.4v-76.8c0-17.3,11.9-31.4,26.6-31.4h291.8
		c14.7,0,26.6,14,26.6,31.4V804C398.1,821.3,386.2,835.3,371.5,835.3z"/>
	<path class="st7" d="M383.5,855.2H62.2c-14.7,0-26.7-14-26.7-31.4V709.6c0-17.3,11.9-31.4,26.7-31.4h321.2
		c14.7,0,26.6,14,26.6,31.4v114.3C410,841.2,398.1,855.2,383.5,855.2z"/>
	<path class="st8" d="M371.5,616.5H79.6c-14.7,0-26.6-14-26.6-31.4v-76.8C53,491,64.9,477,79.6,477h291.8c14.7,0,26.6,14,26.6,31.4
		v76.8C398.1,602.4,386.2,616.5,371.5,616.5z"/>
	<path class="st7" d="M384.5,633.7H63.2c-14.7,0-26.7-14-26.7-31.4V488.1c0-17.3,11.9-31.4,26.7-31.4h321.2
		c14.7,0,26.6,14,26.6,31.4v114.3C411,619.7,399.1,633.7,384.5,633.7z"/>
	<path class="st8" d="M371.5,397.6H79.6c-14.7,0-26.6-14-26.6-31.4v-76.7c0-17.3,11.9-31.4,26.6-31.4h291.8
		c14.7,0,26.6,14,26.6,31.4v76.8C398.1,383.5,386.2,397.6,371.5,397.6z"/>
	<path class="st7" d="M385.5,415.7H64.2c-14.7,0-26.6-14-26.6-31.4V270.1c0-17.3,11.9-31.4,26.6-31.4h321.2
		c14.7,0,26.6,14,26.6,31.4v114.3C412,401.7,400.1,415.7,385.5,415.7z"/>
</g>
<path class="st9" d="M426.4,1334.4H41.6c-8.1,0-14.7-6.6-14.7-14.7v-183.8c0-8.1,6.6-14.7,14.7-14.7h384.8c8.1,0,14.7,6.6,14.7,14.7
	v183.8C441.1,1327.8,434.5,1334.4,426.4,1334.4z"/>
<path class="st10" d="M401.9,1317.3h-341c-8.1,0-14.7-6.6-14.7-14.7v-147.1c0-8.1,6.6-14.7,14.7-14.7h341c8.1,0,14.7,6.6,14.7,14.7
	v147.1C416.5,1310.7,410,1317.3,401.9,1317.3z"/>
</svg>
