<?xml version="1.0" encoding="utf-8"?>
<!-- Generator: Adobe Illustrator 25.2.3, SVG Export Plug-In . SVG Version: 6.00 Build 0)  -->
<svg version="1.1" id="Layer_1" xmlns="http://www.w3.org/2000/svg" xmlns:xlink="http://www.w3.org/1999/xlink" x="0px" y="0px"
	 viewBox="0 0 512 512" style="enable-background:new 0 0 512 512;" xml:space="preserve">
<style type="text/css">
	.st0{fill:#FFFFFF;}
</style>
<path class="st0" d="M256,335.3c-71.5,0-129.7,58.2-129.7,129.7c0,4.1,0.2,8.2,0.6,12.3c38.7,22.7,83,34.8,129.1,34.8
	s90.3-12.1,129.1-34.8c0.4-4,0.6-8.1,0.6-12.3C385.7,393.4,327.5,335.3,256,335.3z"/>
<path class="st0" d="M437,75C388.7,26.6,324.4,0,256,0S123.3,26.6,75,75S0,187.6,0,256c0,68.4,26.6,132.7,75,181
	c6.9,6.9,14.1,13.3,21.6,19.3c3.4-62.9,43.2-116.2,98.8-139.1c-30.5-19.9-50.7-54.3-50.7-93.4c0-61.4,50-111.4,111.4-111.4
	s111.4,50,111.4,111.4c0,39.1-20.2,73.5-50.7,93.4c55.5,22.9,95.4,76.2,98.8,139.1c7.5-6,14.7-12.4,21.6-19.3
	c48.4-48.4,75-112.6,75-181C512,187.6,485.4,123.3,437,75z"/>
<path class="st0" d="M337.4,223.9c0-44.9-36.5-81.4-81.4-81.4s-81.4,36.5-81.4,81.4s36.5,81.4,81.4,81.4S337.4,268.8,337.4,223.9z"
	/>
</svg>
