<?xml version="1.0" encoding="utf-8"?>
<!-- Generator: Adobe Illustrator 25.2.3, SVG Export Plug-In . SVG Version: 6.00 Build 0)  -->
<svg version="1.1" id="Layer_3" xmlns="http://www.w3.org/2000/svg" xmlns:xlink="http://www.w3.org/1999/xlink" x="0px" y="0px"
	 viewBox="0 0 2500 3500" style="enable-background:new 0 0 2500 3500;" xml:space="preserve">
<style type="text/css">
	.st0{fill:#737373;stroke:#2E2E2D;stroke-width:5.04;stroke-miterlimit:10;}
	.st1{fill:none;stroke:#2E2E2D;stroke-width:10.08;stroke-miterlimit:10;}
	.st2{display:none;}
	.st3{display:inline;fill:#2E2E2D;}
	.st4{display:inline;fill:#BBBAB7;}
	.st5{fill:none;stroke:#2E2E2D;stroke-width:5.04;stroke-miterlimit:10;}
	.st6{fill:#377FDF;stroke:#003A91;stroke-width:8.64;stroke-miterlimit:10;}
	.st7{fill:none;stroke:#003A91;stroke-width:8.64;stroke-miterlimit:10;}
</style>
<g id="Layer_6">
	<g id="Layer_1_copy">
		<path class="st0" d="M2405.1,3450.3H114.9c-46,0-83.3-37.3-83.3-83.3V118.4c0-46,37.3-83.3,83.3-83.3h2290.2
			c46,0,83.3,37.3,83.3,83.3v3248.6C2488.4,3413,2451.1,3450.3,2405.1,3450.3z"/>
	</g>
	<g id="Layer_1_copy_4">
		<path class="st1" d="M2355.4,3391.9H164.1c-46,0-83.3-37.3-83.3-83.3V183.7c0-46,37.3-83.3,83.3-83.3h2191.3
			c46,0,83.3,37.3,83.3,83.3v3124.9C2438.7,3354.6,2401.4,3391.9,2355.4,3391.9z"/>
	</g>
	<g id="Layer_1_copy_2" class="st2">
		<path class="st3" d="M2421.3,2416.7H202.8c-52.7,0-95.4-42.7-95.4-95.4V1066.5c0-0.1,0-0.2,0-0.2c0-9.9-10.9-15.7-19.1-10.1
			c-21.7,15-36,40.1-36,68.5v1254.8c0,52.7,42.7,95.4,95.4,95.4h2218.5c30.2,0,56.6-16,71.2-40.1c5.1-8.4-1.4-18.9-11.2-18.3
			C2424.7,2416.6,2423,2416.7,2421.3,2416.7z"/>
	</g>
	<g id="Layer_1_copy_3" class="st2">
		<path class="st4" d="M79.6,1087.9h2230.9c53,0,96,43,96,96v1262.3c0,0.1,0,0.1,0,0.2c0,9.9,11,15.8,19.2,10.1
			c21.8-15.1,36.1-40.4,36.1-68.9V1125.3c0-53-43-96-96-96H134.9c-30.3,0-56.9,16.1-71.6,40.3c-5.1,8.4,1.4,19,11.2,18.4
			C76.2,1087.9,77.9,1087.9,79.6,1087.9z"/>
	</g>
	<g id="Layer_1_copy_5">
		<path class="st5" d="M2402.6,3452.2H112.4c-46,0-83.3-37.3-83.3-83.3V120.3c0-46,37.3-83.3,83.3-83.3h2290.2
			c46,0,83.3,37.3,83.3,83.3v3248.6C2485.9,3414.9,2448.6,3452.2,2402.6,3452.2z"/>
	</g>
</g>
<g id="Layer_1">
	<path class="st6" d="M2290.6,2915H227.2c-46,0-83.3-37.3-83.3-83.3V233.9c0-46,37.3-83.3,83.3-83.3h2063.3
		c46,0,83.3,37.3,83.3,83.3v2597.8C2373.9,2877.7,2336.6,2915,2290.6,2915z"/>
	<path class="st7" d="M2185.3,2832.4H334.2c-46,0-83.3-37.3-83.3-83.3V294.8c0-46,37.3-83.3,83.3-83.3h1851.2
		c46,0,83.3,37.3,83.3,83.3v2454.3C2268.6,2795.1,2231.3,2832.4,2185.3,2832.4z"/>
</g>
</svg>
