<?xml version="1.0" encoding="utf-8"?>
<!-- Generator: Adobe Illustrator 25.2.3, SVG Export Plug-In . SVG Version: 6.00 Build 0)  -->
<svg version="1.1" id="Layer_3" xmlns="http://www.w3.org/2000/svg" xmlns:xlink="http://www.w3.org/1999/xlink" x="0px" y="0px"
	 viewBox="0 0 2500 3500" style="enable-background:new 0 0 2500 3500;" xml:space="preserve">
<style type="text/css">
	.st0{fill:#737373;stroke:#2E2E2D;stroke-width:5.04;stroke-miterlimit:10;}
	.st1{fill:none;stroke:#2E2E2D;stroke-width:10.08;stroke-miterlimit:10;}
	.st2{display:none;}
	.st3{display:inline;fill:#2E2E2D;}
	.st4{display:inline;fill:#BBBAB7;}
	.st5{fill:none;stroke:#2E2E2D;stroke-width:5.04;stroke-miterlimit:10;}
	.st6{fill:#2BB0C4;stroke:#00314A;stroke-width:8.64;stroke-miterlimit:10;}
	.st7{fill:none;stroke:#00314A;stroke-width:8.64;stroke-miterlimit:10;}
</style>
<g id="Layer_6">
	<g id="Layer_1_copy">
		<path class="st0" d="M2405.1,3450.28H114.93c-46.02,0-83.33-37.31-83.33-83.33V118.37c0-46.02,37.31-83.33,83.33-83.33H2405.1
			c46.02,0,83.33,37.31,83.33,83.33v3248.57C2488.43,3412.97,2451.12,3450.28,2405.1,3450.28z"/>
	</g>
	<g id="Layer_1_copy_4">
		<path class="st1" d="M2355.35,3391.9H164.08c-46.02,0-83.33-37.31-83.33-83.33V183.7c0-46.02,37.31-83.33,83.33-83.33h2191.27
			c46.02,0,83.33,37.31,83.33,83.33v3124.87C2438.69,3354.59,2401.38,3391.9,2355.35,3391.9z"/>
	</g>
	<g id="Layer_1_copy_2" class="st2">
		<path class="st3" d="M2421.28,2416.7H202.78c-52.71,0-95.44-42.73-95.44-95.44V1066.5c0-0.07,0-0.15,0-0.22
			c0.03-9.88-10.94-15.7-19.06-10.07c-21.72,15.04-35.95,40.12-35.95,68.54v1254.76c0,52.71,42.73,95.44,95.44,95.44h2218.49
			c30.18,0,56.61-16.04,71.23-40.07c5.09-8.36-1.4-18.92-11.16-18.33C2424.66,2416.65,2422.98,2416.7,2421.28,2416.7z"/>
	</g>
	<g id="Layer_1_copy_3" class="st2">
		<path class="st4" d="M79.56,1087.88h2230.88c53,0,95.97,42.99,95.97,96.01V2446.2c0,0.07,0,0.15,0,0.22
			c-0.03,9.94,11,15.8,19.17,10.14c21.84-15.13,36.15-40.36,36.15-68.95V1125.29c0-53.03-42.97-96.01-95.97-96.01H134.88
			c-30.35,0-56.92,16.14-71.63,40.31c-5.12,8.41,1.4,19.04,11.23,18.44C76.16,1087.93,77.86,1087.88,79.56,1087.88z"/>
	</g>
	<g id="Layer_1_copy_5">
		<path class="st5" d="M2402.61,3452.2H112.44c-46.02,0-83.33-37.31-83.33-83.33V120.29c0-46.02,37.31-83.33,83.33-83.33h2290.17
			c46.02,0,83.33,37.31,83.33,83.33v3248.57C2485.95,3414.89,2448.64,3452.2,2402.61,3452.2z"/>
	</g>
</g>
<g id="Layer_1">
	<path class="st6" d="M2290.56,2915.03H227.22c-46.02,0-83.33-37.31-83.33-83.33V233.95c0-46.02,37.31-83.33,83.33-83.33h2063.34
		c46.02,0,83.33,37.31,83.33,83.33V2831.7C2373.9,2877.72,2336.59,2915.03,2290.56,2915.03z"/>
	<path class="st7" d="M2185.32,2832.45H334.17c-46.02,0-83.33-37.31-83.33-83.33V294.8c0-46.02,37.31-83.33,83.33-83.33h1851.15
		c46.02,0,83.33,37.31,83.33,83.33v2454.32C2268.65,2795.14,2231.34,2832.45,2185.32,2832.45z"/>
</g>
</svg>
