<?xml version="1.0" encoding="utf-8"?>
<!-- Generator: Adobe Illustrator 25.2.3, SVG Export Plug-In . SVG Version: 6.00 Build 0)  -->
<svg version="1.1" xmlns="http://www.w3.org/2000/svg" xmlns:xlink="http://www.w3.org/1999/xlink" x="0px" y="0px"
	 viewBox="0 0 2582.5 3558.2" style="enable-background:new 0 0 2582.5 3558.2;" xml:space="preserve">
<style type="text/css">
	.st0{fill:#737373;stroke:#2E2E2D;stroke-width:5.04;stroke-miterlimit:10;}
	.st1{fill:none;stroke:#2E2E2D;stroke-width:10.08;stroke-miterlimit:10;}
	.st2{display:none;}
	.st3{display:inline;fill:#2E2E2D;}
	.st4{display:inline;fill:#BBBAB7;}
	.st5{fill:none;stroke:#2E2E2D;stroke-width:19.44;stroke-miterlimit:10;}
	.st6{fill:#2E2E2D;}
	.st7{fill:#737373;}
	.st8{fill:#4A7337;stroke:#2E2E2D;stroke-width:14.4;stroke-miterlimit:10;}
	.st9{fill:#377FDF;stroke:#003A91;stroke-width:8.64;stroke-miterlimit:10;}
	.st10{fill:none;stroke:#003A91;stroke-width:14.4;stroke-miterlimit:10;}
	.st11{fill:#FFFFFF;}
	.st12{fill:#663300;}
	.st13{fill:#CC9900;}
	.st14{fill:#54000F;}
	.st15{fill:#B90022;}
</style>
<g id="Layer_3">
	<g id="Layer_6">
		<g id="Layer_1_copy">
			<path class="st0" d="M2453.6,3464.8H163.5c-46,0-83.3-37.3-83.3-83.3V132.9c0-46,37.3-83.3,83.3-83.3h2290.2
				c46,0,83.3,37.3,83.3,83.3v3248.6C2537,3427.5,2499.7,3464.8,2453.6,3464.8z"/>
		</g>
		<g id="Layer_1_copy_4">
			<path class="st1" d="M2403.9,3406.5H212.6c-46,0-83.3-37.3-83.3-83.3V198.3c0-46,37.3-83.3,83.3-83.3h2191.3
				c46,0,83.3,37.3,83.3,83.3v3124.9C2487.2,3369.2,2449.9,3406.5,2403.9,3406.5z"/>
		</g>
		<g id="Layer_1_copy_2" class="st2">
			<path class="st3" d="M2469.8,2431.3H251.3c-52.7,0-95.4-42.7-95.4-95.4V1081.1c0-0.1,0-0.2,0-0.2c0-9.9-10.9-15.7-19.1-10.1
				c-21.7,15-35.9,40.1-35.9,68.5v1254.8c0,52.7,42.7,95.4,95.4,95.4h2218.5c30.2,0,56.6-16,71.2-40.1c5.1-8.4-1.4-18.9-11.2-18.3
				C2473.2,2431.2,2471.5,2431.3,2469.8,2431.3z"/>
		</g>
		<g id="Layer_1_copy_3" class="st2">
			<path class="st4" d="M128.1,1102.4H2359c53,0,96,43,96,96v1262.3c0,0.1,0,0.1,0,0.2c0,9.9,11,15.8,19.2,10.1
				c21.8-15.1,36.1-40.4,36.1-68.9V1139.9c0-53-43-96-96-96H183.4c-30.3,0-56.9,16.1-71.6,40.3c-5.1,8.4,1.4,19,11.2,18.4
				C124.7,1102.5,126.4,1102.4,128.1,1102.4z"/>
		</g>
		<g id="Layer_1_copy_5">
			<path class="st5" d="M2451.1,3466.8H161c-46,0-83.3-37.3-83.3-83.3V134.9c0-46,37.3-83.3,83.3-83.3h2290.2
				c46,0,83.3,37.3,83.3,83.3v3248.6C2534.5,3429.5,2497.2,3466.8,2451.1,3466.8z"/>
		</g>
	</g>
	<g id="Layer_9_copy">
		<g>
			<circle class="st6" cx="2351.1" cy="3189.6" r="48.7"/>
			<circle class="st7" cx="2357.3" cy="3194.5" r="31.1"/>
			<path class="st6" d="M2348.4,3220.5c2.9-21.3,10.7-40,27-46.8l-10.8-6.2c-16.8,6.2-24.1,25.6-27,46.8L2348.4,3220.5z"/>
			<circle class="st6" cx="229.1" cy="3189.6" r="48.7"/>
			<circle class="st7" cx="222.8" cy="3194.5" r="31.1"/>
			<path class="st6" d="M231.7,3220.5c-2.9-21.3-10.7-40-27-46.8l10.8-6.2c16.8,6.2,24.1,25.6,27,46.8L231.7,3220.5z"/>
		</g>
		<path class="st6" d="M2337.1,169.1H274.2c-15.2,0-27.5-12.3-27.5-27.5v-1.6c0-15.2,12.3-27.5,27.5-27.5h2062.9
			c15.2,0,27.5,12.3,27.5,27.5v1.6C2364.6,156.7,2352.3,169.1,2337.1,169.1z"/>
		<path class="st6" d="M200.6,207.9c-62.6,0.1-55.8,84.1-68.8,134.7l-1.6-165.4l25.9-42.1l42.1-17.8l151.7-4.9L200.6,207.9z"/>
		<path class="st6" d="M2418.4,207.9c62.6,0.1,55.8,84.1,68.8,134.7l1.6-165.4l-25.9-42.1l-42.1-17.8l-151.7-4.9L2418.4,207.9z"/>
		<path class="st6" d="M196.5,2906.7L196.5,2906.7c16.1,0,29.1-13,29.1-29.1V222.4c0-16.1-13-29.1-29.1-29.1h0
			c-16.1,0-29.1,13-29.1,29.1v2655.1C167.4,2893.6,180.4,2906.7,196.5,2906.7z"/>
		<path class="st6" d="M2426.1,2906.7L2426.1,2906.7c16.1,0,29.1-13,29.1-29.1V222.4c0-16.1-13-29.1-29.1-29.1l0,0
			c-16.1,0-29.1,13-29.1,29.1v2655.1C2397,2893.6,2410,2906.7,2426.1,2906.7z"/>
		<path class="st6" d="M167.4,2877.6c10.4,45.7,51.9,61.4,119.3,55.8l-86.2-97.1L167.4,2877.6z"/>
		<path class="st6" d="M2452,2877.6c-10.4,45.7-51.9,61.4-119.3,55.8l86.2-97.1L2452,2877.6z"/>
		<path class="st8" d="M2109,3254.5H1060.5c-35.7,0-64.7-29-64.7-64.7v-6.5c0-35.7,29-64.7,64.7-64.7H2109c35.7,0,64.7,29,64.7,64.7
			v6.5C2173.7,3225.6,2144.7,3254.5,2109,3254.5z"/>
	</g>
	<g id="Layer_1">
		<path class="st9" d="M2339.1,2929.6H275.8c-46,0-83.3-37.3-83.3-83.3V248.5c0-46,37.3-83.3,83.3-83.3h2063.3
			c46,0,83.3,37.3,83.3,83.3v2597.8C2422.4,2892.3,2385.1,2929.6,2339.1,2929.6z"/>
		<path class="st10" d="M2233.9,2847H382.7c-46,0-83.3-37.3-83.3-83.3V309.4c0-46,37.3-83.3,83.3-83.3h1851.2
			c46,0,83.3,37.3,83.3,83.3v2454.3C2317.2,2809.7,2279.9,2847,2233.9,2847z"/>
	</g>
	<path class="st6" d="M2466.5,3468.1H149.6c-38.4,0-69.6-31.1-69.6-69.6v-22.7c0-38.4,31.1-69.6,69.6-69.6h2316.9
		c38.4,0,69.6,31.1,69.6,69.6v22.7C2536.1,3437,2505,3468.1,2466.5,3468.1z"/>
	<g>
		<g>
			<path class="st6" d="M215.1,3310.8c-109.2,43-132.1-62.3-135.9-233l0.8,298.1L215.1,3310.8z"/>
			<path class="st6" d="M284.4,3306.9c-117.8-12.4-149.4-109.9-153.2-280.6l0.8,298.1L284.4,3306.9z"/>
		</g>
		<g>
			<path class="st6" d="M2403.2,3310.8c109.2,43,132.1-62.3,135.9-233l-0.8,298.1L2403.2,3310.8z"/>
			<path class="st6" d="M2333.9,3306.9c117.8-12.4,149.4-109.9,153.2-280.6l-0.8,298.1L2333.9,3306.9z"/>
		</g>
	</g>
	<path class="st6" d="M2361.8,3052.3H315.8c-16.8,0-30.3-13.6-30.3-30.3v-17c0-16.8,13.6-30.3,30.3-30.3h2045.9
		c16.8,0,30.3,13.6,30.3,30.3v17C2392.1,3038.7,2378.5,3052.3,2361.8,3052.3z"/>
	<path class="st7" d="M2359.8,3031.7H317.9c-7.4,0-13.5-6-13.5-13.5v-5.8c0-7.4,6-13.5,13.5-13.5h2041.9c7.4,0,13.5,6,13.5,13.5v5.8
		C2373.2,3025.6,2367.2,3031.7,2359.8,3031.7z"/>
	<g>
		<path class="st11" d="M360.6,311.9v2440.3c0,5.5,1.2,10.8,3.4,14.8l3.8,6.8c9.1,16.5-1.3,43.4-13,33.8l-16.3-13.5
			c-4.1-3.4-6.8-10.8-6.8-19v-2465c0-5.5,1.2-10.8,3.4-14.8l7.3-13.3c8.8-16,23.5,1.3,18.9,22.3l0,0
			C360.9,306.8,360.6,309.3,360.6,311.9z"/>
		<path class="st11" d="M331.8,305.8c1.5-6.7,4-13.1,7.9-19.4c4.8-10.3,21.4-25.6,39.8-31.8l41.9-10.3
			c-34.9,18.2-59.8,38.3-59.9,60.7L331.8,305.8z"/>
	</g>
</g>
<g id="Layer_6_1_">
	<g id="Layer_2_copy_2">
		<g id="Layer_2_copy_2_1_">
			<ellipse class="st6" cx="656" cy="3199.5" rx="80.9" ry="64.7"/>
		</g>
		<path class="st7" d="M671.8,3240c-39.7,6.8-78.5-12.6-86.7-43.3c-0.5-2-0.9-3.9-1.2-5.9c-1.2,6.3-1,12.9,0.8,19.5
			c8.2,30.7,47,50.1,86.7,43.3c37.1-6.3,61.9-33.3,58.2-61.9C725.4,3214.9,703,3234.7,671.8,3240z"/>
		<ellipse class="st12" cx="656.8" cy="3184.2" rx="68" ry="47.7"/>
		<polygon class="st12" points="724.8,3184.2 724.8,3159.9 714.3,3192.2 		"/>
		<polygon class="st12" points="588.9,3184.2 588.9,3159.9 599.4,3192.2 		"/>
		<ellipse class="st13" cx="656.8" cy="3160.7" rx="68" ry="47.7"/>
	</g>
	<g id="Layer_2_copy">
		<g id="Layer_2">
			<ellipse class="st6" cx="445.7" cy="3199.5" rx="80.9" ry="64.7"/>
		</g>
		<path class="st7" d="M461.5,3240c-39.7,6.8-78.5-12.6-86.7-43.3c-0.5-2-0.9-3.9-1.2-5.9c-1.2,6.3-1,12.9,0.8,19.5
			c8.2,30.7,47,50.1,86.7,43.3c37.1-6.3,61.9-33.3,58.2-61.9C515,3214.9,492.6,3234.7,461.5,3240z"/>
		<ellipse class="st14" cx="446.5" cy="3184.2" rx="68" ry="47.7"/>
		<polygon class="st14" points="514.4,3184.2 514.4,3159.9 503.9,3192.2 		"/>
		<polygon class="st14" points="378.5,3184.2 378.5,3159.9 389.1,3192.2 		"/>
		<ellipse class="st15" cx="446.5" cy="3160.7" rx="68" ry="47.7"/>
	</g>
</g>
</svg>
