<?xml version="1.0" encoding="utf-8"?>
<!-- Generator: Adobe Illustrator 25.2.3, SVG Export Plug-In . SVG Version: 6.00 Build 0)  -->
<svg version="1.1" id="Layer_3" xmlns="http://www.w3.org/2000/svg" xmlns:xlink="http://www.w3.org/1999/xlink" x="0px" y="0px"
	 viewBox="0 0 1920 1080" style="enable-background:new 0 0 1920 1080;" xml:space="preserve">
<style type="text/css">
	.st0{fill:#737373;stroke:#2E2E2E;stroke-width:5.04;stroke-miterlimit:10;}
	.st1{fill:#3F7359;stroke:#1A4D33;stroke-width:5.04;stroke-miterlimit:10;}
</style>
<g id="Layer_1_copy">
	<path class="st0" d="M1736.63,825.77H169.41c-46.02,0-83.33-37.31-83.33-83.33V295.53c0-46.02,37.31-83.33,83.33-83.33h1567.23
		c46.02,0,83.33,37.31,83.33,83.33v446.91C1819.97,788.46,1782.66,825.77,1736.63,825.77z"/>
</g>
<g id="Layer_1">
	<path class="st1" d="M1657.56,773.7H250.41c-46.02,0-83.33-37.31-83.33-83.33V345.93c0-46.02,37.31-83.33,83.33-83.33h1407.15
		c46.02,0,83.33,37.31,83.33,83.33v344.44C1740.89,736.39,1703.58,773.7,1657.56,773.7z"/>
</g>
</svg>
