<?xml version="1.0" encoding="utf-8"?>
<!-- Generator: Adobe Illustrator 25.2.3, SVG Export Plug-In . SVG Version: 6.00 Build 0)  -->
<svg version="1.1" id="Layer_3" xmlns="http://www.w3.org/2000/svg" xmlns:xlink="http://www.w3.org/1999/xlink" x="0px" y="0px"
	 viewBox="0 0 2573.94 939.39" style="enable-background:new 0 0 2573.94 939.39;" xml:space="preserve">
<style type="text/css">
	.st0{fill:#737373;stroke:#2E2E2E;stroke-width:5.04;stroke-miterlimit:10;}
	.st1{fill:#3F7359;stroke:#1A4D33;stroke-width:5.04;stroke-miterlimit:10;}
</style>
<g id="Layer_1_copy">
	<path class="st0" d="M2477.67,914.92H114.39c-46.02,0-83.33-37.31-83.33-83.33v-728.6c0-46.02,37.31-83.33,83.33-83.33h2363.27
		c46.02,0,83.33,37.31,83.33,83.33v728.6C2561,877.61,2523.69,914.92,2477.67,914.92z"/>
</g>
<g id="Layer_1">
	<path class="st1" d="M2362.29,838.94H232.59c-46.02,0-83.33-37.31-83.33-83.33V176.52c0-46.02,37.31-83.33,83.33-83.33h2129.7
		c46.02,0,83.33,37.31,83.33,83.33V755.6C2445.62,801.63,2408.31,838.94,2362.29,838.94z"/>
</g>
</svg>
