<?xml version="1.0" encoding="utf-8"?>
<!-- Generator: Adobe Illustrator 25.2.3, SVG Export Plug-In . SVG Version: 6.00 Build 0)  -->
<svg version="1.1" id="Layer_3" xmlns="http://www.w3.org/2000/svg" xmlns:xlink="http://www.w3.org/1999/xlink" x="0px" y="0px"
	 viewBox="0 0 2500 1500" style="enable-background:new 0 0 2500 1500;" xml:space="preserve">
<style type="text/css">
	.st0{fill:#737373;stroke:#2E2E2D;stroke-width:5.04;stroke-miterlimit:10;}
	.st1{fill:none;stroke:#2E2E2D;stroke-width:10.08;stroke-miterlimit:10;}
	.st2{fill:#2E2E2D;}
	.st3{fill:#D1D1CE;}
	.st4{display:none;}
	.st5{display:inline;fill:#2E2E2D;}
	.st6{display:inline;fill:#BBBAB7;}
	.st7{fill:#C9C9C6;}
	.st8{fill:none;stroke:#2E2E2D;stroke-width:5.04;stroke-miterlimit:10;}
	.st9{fill:#2BB0C4;stroke:#00314A;stroke-width:8.64;stroke-miterlimit:10;}
	.st10{fill:none;stroke:#00314A;stroke-width:8.64;stroke-miterlimit:10;}
</style>
<g id="Layer_6">
	<g id="Layer_1_copy">
		<path class="st0" d="M2368.69,1470.9H138.1c-46.02,0-83.33-37.31-83.33-83.33V120.7c0-46.02,37.31-83.33,83.33-83.33h2230.6
			c46.02,0,83.33,37.31,83.33,83.33v1266.86C2452.03,1433.59,2414.72,1470.9,2368.69,1470.9z"/>
	</g>
	<g id="Layer_1_copy_4">
		<path class="st1" d="M2320.16,1417.51H186.06c-46.02,0-83.33-37.31-83.33-83.33V170.86c0-46.02,37.31-83.33,83.33-83.33h2134.1
			c46.02,0,83.33,37.31,83.33,83.33v1163.31C2403.49,1380.2,2366.18,1417.51,2320.16,1417.51z"/>
	</g>
	<circle class="st2" cx="160.97" cy="140.92" r="24.27"/>
	<path class="st3" d="M178.65,129.87c6,11.98,1.16,26.57-10.83,32.57c-3.51,1.76-7.25,2.58-10.93,2.57
		c5.42,1.35,11.33,0.85,16.72-1.85c11.98-6,16.83-20.59,10.83-32.57c-4.24-8.47-12.78-13.37-21.64-13.4
		C169.44,118.84,175.35,123.27,178.65,129.87z"/>
	<circle class="st2" cx="2345.24" cy="140.92" r="24.27"/>
	<circle class="st2" cx="2345.24" cy="1361.69" r="24.27"/>
	<circle class="st2" cx="160.97" cy="1361.69" r="24.27"/>
	<g id="Layer_1_copy_2" class="st4">
		<path class="st5" d="M2421.28,1416.7H202.78c-52.71,0-95.44-42.73-95.44-95.44V66.5c0-0.07,0-0.15,0-0.22
			c0.03-9.88-10.94-15.7-19.06-10.07c-21.72,15.04-35.95,40.12-35.95,68.54v1254.76c0,52.71,42.73,95.44,95.44,95.44h2218.49
			c30.18,0,56.61-16.04,71.23-40.07c5.09-8.36-1.4-18.92-11.16-18.33C2424.66,1416.65,2422.98,1416.7,2421.28,1416.7z"/>
	</g>
	<g id="Layer_1_copy_3" class="st4">
		<path class="st6" d="M79.56,87.88h2230.88c53,0,95.97,42.99,95.97,96.01V1446.2c0,0.07,0,0.15,0,0.22
			c-0.03,9.94,11,15.8,19.17,10.14c21.84-15.13,36.15-40.36,36.15-68.95V125.29c0-53.03-42.97-96.01-95.97-96.01H134.88
			c-30.35,0-56.92,16.14-71.63,40.31c-5.12,8.41,1.4,19.04,11.23,18.44C76.16,87.93,77.86,87.88,79.56,87.88z"/>
	</g>
	<path class="st2" d="M186.46,1470.9c-34.38-7.62-52.99-30.74-61.89-75.24c-5.56-12.42-12.07-17.83-23.46-47.73l5.66-1191.64
		l29.12-54.2c-26.61-17.85-28.53-38.81,10.79-64.99c-50.85-2.78-82.25,22.05-94.92,73.48V1399.3c6.64,38.92,28.12,63.15,64.31,72.81
		C116.07,1472.11,190.1,1467.26,186.46,1470.9z"/>
	<path class="st2" d="M2364.25,1434.49H134.28v36.4h2229.98c6.93,0,12.54-5.61,12.54-12.54v-11.33
		C2376.79,1440.11,2371.18,1434.49,2364.25,1434.49z"/>
	<path class="st7" d="M2435.04,1388.38h2.43c5.36,0,9.71-4.35,9.71-9.71V148.2h-21.84v1230.47
		C2425.33,1384.04,2429.68,1388.38,2435.04,1388.38z"/>
	<path class="st7" d="M2425.33,148.2c2.45-46.92-17.76-82.83-55.01-110.43c24.67,2.14,45.47,10.9,60.27,29.93l20.22,48.54
		l-1.21,32.36L2425.33,148.2z"/>
	<g id="Layer_1_copy_5">
		<path class="st8" d="M2366.27,1471.71H135.67c-46.02,0-83.33-37.31-83.33-83.33V121.51c0-46.02,37.31-83.33,83.33-83.33h2230.6
			c46.02,0,83.33,37.31,83.33,83.33v1266.86C2449.6,1434.4,2412.29,1471.71,2366.27,1471.71z"/>
	</g>
</g>
<g id="Layer_1">
	<path class="st9" d="M2256.94,1350.04H247.67c-46.02,0-83.33-37.31-83.33-83.33V239.26c0-46.02,37.31-83.33,83.33-83.33h2009.27
		c46.02,0,83.33,37.31,83.33,83.33v1027.45C2340.27,1312.73,2302.96,1350.04,2256.94,1350.04z"/>
	<path class="st10" d="M2154.24,1291.8H352.03c-46.02,0-83.33-37.31-83.33-83.33V294.64c0-46.02,37.31-83.33,83.33-83.33h1802.22
		c46.02,0,83.33,37.31,83.33,83.33v913.83C2237.58,1254.49,2200.27,1291.8,2154.24,1291.8z"/>
</g>
</svg>
